<svg data-v-423bf9ae="" xmlns="http://www.w3.org/2000/svg" viewBox="0 0 304.28571708514954 60" class="font"><!----><!----><!----><g data-v-423bf9ae="" id="49d2986b-e165-42b6-9540-b0a8fc1d4271" fill="black" transform="matrix(5.870841333886128,0,0,5.870841333886128,-5.107632860266079,-4.109588208083309)"><path d="M0.87 10.67L0.87 10.22L1.88 10.22L1.88 10.22Q2.25 10.22 2.25 9.84L2.25 9.84L2.25 1.53L2.25 1.53Q2.25 1.33 2.16 1.24L2.16 1.24L2.16 1.24Q2.07 1.15 1.88 1.15L1.88 1.15L0.87 1.15L0.87 0.70L8.68 0.70L8.74 4.20L8.39 4.20L8.39 4.20Q8.39 3.92 8.27 3.25L8.27 3.25L8.27 3.25Q8.15 2.58 7.80 2.04L7.80 2.04L7.80 2.04Q7.21 1.15 6.15 1.15L6.15 1.15L3.92 1.15L3.92 1.15Q3.72 1.15 3.63 1.24L3.63 1.24L3.63 1.24Q3.54 1.33 3.54 1.53L3.54 1.53L3.54 5.29L4.62 5.29L4.62 5.29Q5.33 5.29 5.65 4.56L5.65 4.56L5.65 4.56Q5.96 3.84 5.96 3.01L5.96 3.01L6.33 3.01L6.33 8.02L5.96 8.02L5.96 8.02Q5.96 7.20 5.65 6.47L5.65 6.47L5.65 6.47Q5.33 5.74 4.62 5.74L4.62 5.74L3.54 5.74L3.54 9.84L3.54 9.84Q3.54 10.22 3.92 10.22L3.92 10.22L6.16 10.22L6.16 10.22Q6.57 10.22 6.99 10.04L6.99 10.04L6.99 10.04Q7.41 9.86 7.70 9.48L7.70 9.48L7.70 9.48Q7.98 9.09 8.16 8.50L8.16 8.50L8.16 8.50Q8.34 7.91 8.41 7.43L8.41 7.43L8.41 7.43Q8.48 6.94 8.50 6.80L8.50 6.80L8.85 6.80L8.68 10.67L0.87 10.67ZM12.12 10.84L12.12 10.84Q11.38 10.84 10.84 10.47L10.84 10.47L10.84 10.47Q10.30 10.11 10.30 9.18L10.30 9.18L10.30 9.18Q10.30 8.47 10.67 8.06L10.67 8.06L10.67 8.06Q11.03 7.66 11.52 7.48L11.52 7.48L11.52 7.48Q12.00 7.31 12.68 7.18L12.68 7.18L13.97 6.94L13.97 5.75L13.97 5.75Q13.97 4.45 12.67 4.45L12.67 4.45L12.67 4.45Q12.19 4.45 11.80 4.70L11.80 4.70L11.80 4.70Q11.41 4.94 11.41 5.25L11.41 5.25L11.41 5.25Q11.41 5.39 11.45 5.46L11.45 5.46L11.45 5.46Q11.48 5.50 11.54 5.54L11.54 5.54L11.54 5.54Q11.61 5.59 11.66 5.60L11.66 5.60L11.66 5.60Q11.91 5.67 12.05 5.80L12.05 5.80L12.05 5.80Q12.18 5.92 12.18 6.15L12.18 6.15L12.18 6.15Q12.18 6.44 12.01 6.57L12.01 6.57L12.01 6.57Q11.83 6.69 11.56 6.69L11.56 6.69L11.56 6.69Q11.26 6.69 11.00 6.45L11.00 6.45L11.00 6.45Q10.75 6.22 10.75 5.77L10.75 5.77L10.75 5.77Q10.75 5.25 11.04 4.87L11.04 4.87L11.04 4.87Q11.33 4.49 11.78 4.31L11.78 4.31L11.78 4.31Q12.24 4.12 12.71 4.12L12.71 4.12L12.71 4.12Q13.64 4.12 14.31 4.60L14.31 4.60L14.31 4.60Q14.98 5.08 14.98 6.10L14.98 6.10L14.98 9.55L14.98 9.55Q14.98 10.25 15.41 10.25L15.41 10.25L15.41 10.25Q15.76 10.25 15.92 9.84L15.92 9.84L15.92 9.84Q16.07 9.44 16.07 8.85L16.07 8.85L16.32 8.85L16.32 8.85Q16.32 9.69 16.08 10.26L16.08 10.26L16.08 10.26Q15.83 10.84 15.20 10.84L15.20 10.84L15.20 10.84Q14.60 10.84 14.30 10.48L14.30 10.48L14.30 10.48Q14 10.12 13.97 9.49L13.97 9.49L13.90 9.46L13.90 9.46Q13.69 9.95 13.22 10.40L13.22 10.40L13.22 10.40Q12.75 10.84 12.12 10.84L12.12 10.84ZM12.35 10.33L12.35 10.33Q12.98 10.33 13.34 9.84L13.34 9.84L13.34 9.84Q13.69 9.34 13.97 8.57L13.97 8.57L13.97 7.24L12.75 7.50L12.75 7.50Q12.08 7.64 11.78 8.06L11.78 8.06L11.78 8.06Q11.48 8.47 11.48 9.23L11.48 9.23L11.48 9.23Q11.48 9.87 11.75 10.10L11.75 10.10L11.75 10.10Q12.01 10.33 12.35 10.33L12.35 10.33ZM19.46 10.84L19.46 10.84Q18.83 10.84 18.42 10.39L18.42 10.39L18.42 10.39Q18.00 9.94 18.00 9.17L18.00 9.17L18.00 4.68L16.97 4.68L16.97 4.28L17.28 4.28L17.28 4.28Q17.91 4.28 18.26 3.61L18.26 3.61L18.26 3.61Q18.62 2.93 18.62 2.10L18.62 2.10L18.62 1.60L19.01 1.60L19.01 4.28L20.75 4.28L20.75 4.68L19.01 4.68L19.01 9.24L19.01 9.24Q19.01 9.66 19.18 9.94L19.18 9.94L19.18 9.94Q19.35 10.22 19.75 10.22L19.75 10.22L19.75 10.22Q20.75 10.22 20.75 8.54L20.75 8.54L21 8.54L21 8.54Q21 9.48 20.73 10.16L20.73 10.16L20.73 10.16Q20.45 10.84 19.46 10.84L19.46 10.84ZM30.28 10.92L27.62 1.76L27.62 1.76Q27.50 1.41 27.30 1.28L27.30 1.28L27.30 1.28Q27.10 1.15 26.80 1.15L26.80 1.15L25.93 1.15L25.93 0.70L30.07 0.70L30.07 1.15L29.40 1.15L29.40 1.15Q29.20 1.15 29.06 1.25L29.06 1.25L29.06 1.25Q28.92 1.36 28.92 1.50L28.92 1.50L28.92 1.50Q28.92 1.61 28.98 1.81L28.98 1.81L30.84 8.25L32.54 2.11L32.40 1.67L32.40 1.67Q32.30 1.39 32.00 1.27L32.00 1.27L32.00 1.27Q31.71 1.15 31.40 1.15L31.40 1.15L31.00 1.15L31.00 0.70L35.14 0.70L35.14 1.15L34.59 1.15L34.59 1.15Q33.88 1.15 33.88 1.88L33.88 1.88L33.88 1.88Q33.88 2.07 33.96 2.31L33.96 2.31L35.73 8.37L37.46 2.86L37.46 2.86Q37.56 2.48 37.60 2.28L37.60 2.28L37.60 2.28Q37.63 2.07 37.63 1.78L37.63 1.78L37.63 1.78Q37.63 1.51 37.39 1.33L37.39 1.33L37.39 1.33Q37.14 1.15 36.71 1.15L36.71 1.15L36.23 1.15L36.23 0.70L40.01 0.70L40.01 1.15L39.41 1.15L39.41 1.15Q38.93 1.15 38.67 1.43L38.67 1.43L38.67 1.43Q38.42 1.71 38.28 2.17L38.28 2.17L35.49 10.92L35.14 10.92L32.84 3.14L30.63 10.92L30.28 10.92ZM42.56 10.84L42.56 10.84Q41.26 10.84 40.47 9.95L40.47 9.95L40.47 9.95Q39.68 9.07 39.68 7.50L39.68 7.50L39.68 7.50Q39.68 6.61 40.03 5.83L40.03 5.83L40.03 5.83Q40.38 5.05 41.00 4.59L41.00 4.59L41.00 4.59Q41.62 4.12 42.39 4.12L42.39 4.12L42.39 4.12Q43.25 4.12 43.79 4.58L43.79 4.58L43.79 4.58Q44.34 5.04 44.58 5.75L44.58 5.75L44.58 5.75Q44.83 6.45 44.83 7.20L44.83 7.20L44.83 7.20Q44.83 7.35 44.73 7.40L44.73 7.40L44.73 7.40Q44.63 7.45 44.39 7.45L44.39 7.45L40.91 7.45L40.91 7.45Q40.91 8.85 41.31 9.67L41.31 9.67L41.31 9.67Q41.71 10.50 42.62 10.50L42.62 10.50L42.62 10.50Q43.26 10.50 43.83 10.01L43.83 10.01L43.83 10.01Q44.39 9.52 44.55 8.48L44.55 8.48L44.88 8.48L44.88 8.48Q44.80 9.51 44.18 10.17L44.18 10.17L44.18 10.17Q43.55 10.84 42.56 10.84L42.56 10.84ZM40.91 7.11L43.62 7.11L43.62 7.11Q43.62 5.99 43.33 5.22L43.33 5.22L43.33 5.22Q43.04 4.45 42.36 4.45L42.36 4.45L42.36 4.45Q41.65 4.45 41.28 5.23L41.28 5.23L41.28 5.23Q40.91 6.01 40.91 7.11L40.91 7.11ZM45.84 10.67L45.84 10.33L46.56 10.33L46.56 10.33Q46.73 10.33 46.80 10.26L46.80 10.26L46.80 10.26Q46.87 10.19 46.87 10.02L46.87 10.02L46.87 1.34L46.87 1.34Q46.87 1.18 46.80 1.11L46.80 1.11L46.80 1.11Q46.73 1.04 46.56 1.04L46.56 1.04L45.84 1.04L45.84 0.70L47.88 0.70L47.88 10.02L47.88 10.02Q47.88 10.19 47.95 10.26L47.95 10.26L47.95 10.26Q48.02 10.33 48.19 10.33L48.19 10.33L48.92 10.33L48.92 10.67L45.84 10.67ZM49.62 10.67L49.62 10.33L50.34 10.33L50.34 10.33Q50.51 10.33 50.58 10.26L50.58 10.26L50.58 10.26Q50.65 10.19 50.65 10.02L50.65 10.02L50.65 1.34L50.65 1.34Q50.65 1.18 50.58 1.11L50.58 1.11L50.58 1.11Q50.51 1.04 50.34 1.04L50.34 1.04L49.62 1.04L49.62 0.70L51.66 0.70L51.66 10.02L51.66 10.02Q51.66 10.19 51.73 10.26L51.73 10.26L51.73 10.26Q51.80 10.33 51.97 10.33L51.97 10.33L52.70 10.33L52.70 10.67L49.62 10.67Z"></path></g><!----><!----></svg>